<?xml version="1.0" encoding="iso-8859-1"?>
<!-- Generator: Adobe Illustrator 16.0.0, SVG Export Plug-In . SVG Version: 6.00 Build 0)  -->
<!DOCTYPE svg PUBLIC "-//W3C//DTD SVG 1.1//EN" "http://www.w3.org/Graphics/SVG/1.1/DTD/svg11.dtd">
<svg version="1.1" id="Capa_1" xmlns="http://www.w3.org/2000/svg" xmlns:xlink="http://www.w3.org/1999/xlink" x="0px" y="0px"
	 width="35.66px" height="35.66px" viewBox="0 0 35.66 35.66" style="enable-background:new 0 0 35.66 35.66;" xml:space="preserve"
	>
<g>
	<path d="M33.214,14.677l0.151,0.176c0.159,0.176,0.42,0.214,0.624,0.094c0.203-0.12,0.295-0.367,0.219-0.592
		c-0.613-1.807-1.586-3.413-2.888-4.775c-2.464-2.577-5.784-3.996-9.352-3.996c-1.458,0-2.887,0.241-4.239,0.708
		c2.245-1.651,4.952-2.546,7.78-2.546c1.287,0,2.564,0.187,3.797,0.555c0.231,0.069,0.482-0.038,0.591-0.257
		c0.107-0.218,0.043-0.482-0.152-0.626C26.681,1.183,23.046,0,19.236,0c-4.604,0-8.973,1.753-12.302,4.936
		C3.491,8.227,1.537,12.663,1.43,17.425c-0.107,4.763,1.647,9.281,4.939,12.726c3.396,3.553,7.974,5.51,12.891,5.51
		c4.611,0,8.988-1.756,12.323-4.943c0.111-0.104,0.214-0.219,0.315-0.328l0.147-0.158c0.176-0.184,0.187-0.467,0.025-0.664
		c-0.161-0.194-0.442-0.239-0.655-0.104c-1.074,0.686-2.272,1.129-3.521,1.346c4.064-2.016,6.8-4.774,6.108-6.174
		c-0.611-1.24-3.702-0.996-7.229,0.467l0.256-1.457c0.044-0.25-0.061-0.504-0.268-0.649l-2.202-1.563l3.833-0.879
		c0.354-0.08,0.575-0.435,0.494-0.787c-0.081-0.354-0.436-0.578-0.789-0.494l-5.266,1.205c-0.021,0.006-0.033,0.021-0.053,0.026
		c-0.067,0.021-0.131,0.052-0.188,0.097c-0.013,0.01-0.028,0.01-0.04,0.02c-3.209,2.752-3.319,3.078-3.377,3.254
		c-0.115,0.346,0.071,0.717,0.417,0.832c0.068,0.021,0.139,0.035,0.208,0.035c0.243,0,0.473-0.139,0.586-0.359
		c0.217-0.281,1.453-1.402,2.635-2.426l1.764,1.25l-2.698,2.596c-0.144,0.139-0.216,0.332-0.199,0.529l0.119,1.441
		c-0.574,0.432-1.08,0.863-1.501,1.285c-0.428-0.32-0.838-0.67-1.215-1.063c-3.669-3.838-3.532-9.948,0.306-13.619
		c1.801-1.721,4.164-2.669,6.653-2.669C28.906,11.701,31.378,12.757,33.214,14.677z M25.587,24.256l-0.263,1.5
		c-0.737,0.365-1.43,0.756-2.065,1.156l-0.032-0.387L25.587,24.256z M21.447,16.507c0.969,0,1.755,0.785,1.755,1.755
		c0,0.969-0.786,1.756-1.755,1.756c-0.97,0-1.755-0.787-1.755-1.756C19.691,17.292,20.477,16.507,21.447,16.507z"/>
</g>
<g>
</g>
<g>
</g>
<g>
</g>
<g>
</g>
<g>
</g>
<g>
</g>
<g>
</g>
<g>
</g>
<g>
</g>
<g>
</g>
<g>
</g>
<g>
</g>
<g>
</g>
<g>
</g>
<g>
</g>
</svg>
